<svg xmlns="http://www.w3.org/2000/svg" xmlns:xlink="http://www.w3.org/1999/xlink" id="Layer_1" x="0" y="0" version="1.1" viewBox="0 0 35 29.6" xml:space="preserve" style="enable-background:new 0 0 35 29.6"><style type="text/css">.st4{fill:#5961ff}</style><g><path d="M35,8.2L17.5,0L0,8.2l17.5,8.2L35,8.2z M17.5,1.7l13.9,6.5l-13.9,6.5L3.5,8.2L17.5,1.7z" class="st4"/><path d="M3.1,12.9l1.4,2.3c0,0,12.6,6,13,6s13-6,13-6l1.4-2.3l-14.4,6.7L3.1,12.9z" class="st4"/><path d="M7.6,19.2L9,21.5c0,0,8.3,3.9,8.5,3.9s8.5-3.9,8.5-3.9l1.4-2.3l-9.9,4.6L7.6,19.2z" class="st4"/><path d="M11.9,25.4l1.4,2.3c0,0,3.9,1.9,4.2,1.9s4.2-1.9,4.2-1.9l1.4-2.3L17.5,28L11.9,25.4z" class="st4"/></g></svg>