<svg xmlns="http://www.w3.org/2000/svg" xmlns:xlink="http://www.w3.org/1999/xlink" id="Layer_1" x="0" y="0" version="1.1" viewBox="0 0 200 200" xml:space="preserve" style="enable-background:new 0 0 200 200"><style type="text/css">.st0{fill:#5961ff}</style><g><polygon points="107.2 78 100.7 80.7 100.7 52.8 119.6 45.1 119.6 55.2 123.2 55 123.2 39.9 99 49.7 74.8 39.9 74.8 64.4 78.3 65.6 78.3 45.1 97.2 52.8 97.2 80.7 90.4 78 91.2 81.5 99 85.2 107.2 81.8" class="st0"/><polygon points="99 33.4 119.4 41.4 123.3 39.8 99 30.2 74.7 39.8 78.5 41.4" class="st0"/></g><path d="M154.8,60l-24.2,9.8L106.4,60v31.7l24.2,11.4l24.2-11.4V60z M109.9,89.3V65.2l18.9,7.7v25.7L109.9,89.3z M151.3,89.3l-18.9,9.3V72.9l18.9-7.7V89.3z" class="st0"/><polygon points="130.6 53.6 151 61.7 154.9 60.1 130.6 50.5 106.3 60.1 110.2 61.7" class="st0"/><g><path d="M92.9,69.9l-24.2,9.8l-24.2-9.8v22.3l24.2,11l24.2-11V69.9z M48,89.8V75.1l18.9,7.7v15.8L48,89.8z M89.3,89.8 l-18.9,8.8V82.8l18.9-7.7V89.8z" class="st0"/><polygon points="68.7 63.4 89.1 71.4 92.9 69.8 68.7 60.2 44.4 69.8 48.2 71.4" class="st0"/></g><path d="M167.2,138.4c-7.8,4.1-48.1,23.3-56.7,27.7c-8.6,4.5-13.4,4.4-20.1,1.2c-6.8-3.2-49.7-21.9-57.4-25.6	c-3.9-1.8-5.9-3.4-5.9-4.9v-6.3c0,0,50.6,23,62.8,28c8.2,2.8,12.3,2.8,19.8-0.5c8.6-4.1,63.2-30.1,63.2-30.1s0,4,0,5.3	C172.9,134.7,171.2,136.3,167.2,138.4z" class="st0"/><path d="M167.2,101.2c-7.8,4.1-48.1,23.3-56.7,27.7c-8.6,4.5-13.4,4.4-20.1,1.2c-6.8-3.2-49.7-21.9-57.4-25.6	c-3.9-1.8-5.9-3.4-5.9-4.9v-6.3c0,0,50.6,23,62.8,28c8.2,2.8,12.3,2.8,19.8-0.5c8.6-4.1,63.2-30.1,63.2-30.1s0,4,0,5.3	C172.9,97.6,171.2,99.2,167.2,101.2z" class="st0"/><path d="M167.2,119.8c-7.8,4.1-48.1,23.3-56.7,27.7c-8.6,4.5-13.4,4.4-20.1,1.2c-6.8-3.2-49.7-21.9-57.4-25.6	c-3.9-1.8-5.9-3.4-5.9-4.9V112c0,0,50.6,23,62.8,28c8.2,2.8,12.3,2.8,19.8-0.5c8.6-4.1,63.2-30.1,63.2-30.1s0,4,0,5.3	C172.9,116.2,171.2,117.8,167.2,119.8z" class="st0"/></svg>